<?xml version="1.0" encoding="UTF-8" standalone="no"?>
<!-- Created with Inkscape (http://www.inkscape.org/) -->

<svg
   width="210mm"
   height="297mm"
   viewBox="0 0 210 297"
   version="1.1"
   id="svg1"
   inkscape:version="1.4 (e7c3feb1, 2024-10-09)"
   sodipodi:docname="birne_new.svg"
   xml:space="preserve"
   xmlns:inkscape="http://www.inkscape.org/namespaces/inkscape"
   xmlns:sodipodi="http://sodipodi.sourceforge.net/DTD/sodipodi-0.dtd"
   xmlns="http://www.w3.org/2000/svg"
   xmlns:svg="http://www.w3.org/2000/svg"><sodipodi:namedview
     id="namedview1"
     pagecolor="#ffffff"
     bordercolor="#000000"
     borderopacity="0.25"
     inkscape:showpageshadow="2"
     inkscape:pageopacity="0.0"
     inkscape:pagecheckerboard="0"
     inkscape:deskcolor="#d1d1d1"
     inkscape:document-units="mm"
     inkscape:zoom="0.62655704"
     inkscape:cx="310.42665"
     inkscape:cy="596.11492"
     inkscape:window-width="1512"
     inkscape:window-height="916"
     inkscape:window-x="0"
     inkscape:window-y="38"
     inkscape:window-maximized="0"
     inkscape:current-layer="layer1"
     showguides="true"
     showgrid="false"><inkscape:grid
       id="grid1"
       units="mm"
       originx="0"
       originy="0"
       spacingx="0.99999998"
       spacingy="1"
       empcolor="#0099e5"
       empopacity="0.30196078"
       color="#0099e5"
       opacity="0.14901961"
       empspacing="5"
       enabled="true"
       visible="false" /><sodipodi:guide
       position="105,148.5"
       orientation="0,-1"
       id="guide1"
       inkscape:locked="false" /><sodipodi:guide
       position="105,148.5"
       orientation="1,0"
       id="guide2"
       inkscape:locked="false" /><sodipodi:guide
       position="135.85316,209.43766"
       orientation="0,-1"
       id="guide3"
       inkscape:locked="false" /><sodipodi:guide
       position="56.331041,134.67994"
       orientation="1,0"
       id="guide4"
       inkscape:locked="false" /><sodipodi:guide
       position="151.66049,118.3006"
       orientation="1,0"
       id="guide5"
       inkscape:locked="false" /></sodipodi:namedview><defs
     id="defs1"><inkscape:path-effect
       effect="mirror_symmetry"
       start_point="103.99577,89.609688"
       end_point="103.99577,203.65839"
       center_point="103.99577,146.63404"
       id="path-effect1"
       is_visible="true"
       lpeversion="1.2"
       lpesatellites=""
       mode="free"
       discard_orig_path="false"
       fuse_paths="false"
       oposite_fuse="false"
       split_items="false"
       split_open="false"
       link_styles="false" /><rect
       x="482.22184"
       y="956.88535"
       width="25.698343"
       height="13.605005"
       id="rect1" /></defs><g
     inkscape:label="Layer 1"
     inkscape:groupmode="layer"
     id="layer1"><text
       xml:space="preserve"
       style="font-style:normal;font-variant:normal;font-weight:normal;font-stretch:normal;font-size:45.8611px;font-family:Monospace;-inkscape-font-specification:Monospace;text-align:start;letter-spacing:-1.05833px;word-spacing:0px;writing-mode:lr-tb;direction:ltr;text-anchor:start;display:none;fill:#27945c;fill-opacity:1;stroke:none;stroke-width:1.97874;stroke-linecap:butt;stroke-linejoin:miter;stroke-dasharray:none;stroke-opacity:1"
       x="14.658606"
       y="262.94046"
       id="text2-8"
       transform="scale(0.9786787,1.0217858)"><tspan
         sodipodi:role="line"
         x="14.658606"
         y="262.94046"
         style="font-style:normal;font-variant:normal;font-weight:bold;font-stretch:normal;font-size:45.8611px;font-family:'Geist Mono';-inkscape-font-specification:'Geist Mono Bold';text-align:start;letter-spacing:-1.05833px;word-spacing:0px;text-anchor:start;fill:#27945c;fill-opacity:1;stroke-width:1.97874"
         id="tspan4-8">HVLtech</tspan></text><text
       xml:space="preserve"
       transform="scale(0.26458333)"
       id="text1"
       style="font-style:normal;font-variant:normal;font-weight:bold;font-stretch:normal;font-family:'Iosevka Term';-inkscape-font-specification:'Iosevka Term Bold';text-align:start;letter-spacing:-4px;word-spacing:0px;writing-mode:lr-tb;direction:ltr;white-space:pre;shape-inside:url(#rect1);display:none;fill:none;stroke:#000000" /><path
       style="color:#000000;font-style:normal;font-variant:normal;font-weight:normal;font-stretch:normal;font-size:medium;line-height:normal;font-family:sans-serif;font-variant-ligatures:normal;font-variant-position:normal;font-variant-caps:normal;font-variant-numeric:normal;font-variant-alternates:normal;font-variant-east-asian:normal;font-feature-settings:normal;font-variation-settings:normal;text-indent:0;text-align:start;text-decoration-line:none;text-decoration-style:solid;text-decoration-color:#000000;letter-spacing:normal;word-spacing:normal;text-transform:none;writing-mode:lr-tb;direction:ltr;text-orientation:mixed;dominant-baseline:auto;baseline-shift:baseline;text-anchor:start;white-space:normal;shape-padding:0;shape-margin:0;inline-size:0;clip-rule:nonzero;display:none;overflow:visible;visibility:visible;isolation:auto;mix-blend-mode:normal;color-interpolation:sRGB;color-interpolation-filters:linearRGB;solid-color:#000000;solid-opacity:1;vector-effect:none;fill:#27945c;fill-opacity:1;fill-rule:nonzero;stroke:none;stroke-width:0.264583;stroke-linecap:butt;stroke-linejoin:miter;stroke-miterlimit:4;stroke-dasharray:none;stroke-dashoffset:0;stroke-opacity:1;-inkscape-stroke:none;color-rendering:auto;image-rendering:auto;shape-rendering:auto;text-rendering:auto;enable-background:accumulate;stop-color:#000000"
       d="m 100.37674,85.294119 c -6.811303,3.363966 -13.622603,6.727931 -20.433903,10.091896 -3.4761,8.823455 -6.70526,17.783965 -10.33444,26.522435 -5.94135,7.88927 -11.88271,15.77851 -17.82406,23.66778 -0.008,11.46079 -0.0169,22.92162 -0.0254,34.38242 9.48159,9.62662 18.96319,19.25325 28.44478,28.87988 16.4648,-0.0132 32.981373,-0.0794 49.467343,-0.12783 9.42044,-9.6566 18.8409,-19.3132 28.26134,-28.96981 0.23574,-11.04997 0.35338,-22.10099 0.293,-33.1535 -6.28819,-9.29778 -13.39477,-18.06324 -19.76578,-27.28132 -3.27488,-8.5987 -6.54979,-17.19739 -9.82467,-25.796083 -6.95343,-3.097583 -13.98796,-6.502638 -21.43029,-8.121147 -2.27598,-0.03157 -4.55195,-0.06316 -6.82792,-0.09472 z m 1.8071,7.991263 c 7.21117,-0.491542 13.64766,3.621749 20.17345,6.123649 3.16561,8.119029 6.08833,16.370559 9.40422,24.407599 6.15894,8.38467 12.37231,16.73161 18.49744,25.13976 0.0462,9.16328 -0.0389,18.32549 -0.2377,27.48668 -7.90615,8.10443 -15.81232,16.20883 -23.71847,24.31325 -14.25749,0.0416 -28.515043,0.0722 -42.772563,0.10915 -7.93441,-8.05601 -15.86881,-16.11202 -23.80322,-24.16803 0.007,-9.48504 0.0138,-18.97006 0.0206,-28.45511 5.72114,-7.71311 11.68927,-15.28916 17.25727,-23.08725 3.08409,-8.00132 6.16815,-16.00261 9.25221,-24.00393 5.30892,-2.621911 10.61781,-5.243853 15.926733,-7.865768 z"
       id="path1-2-9-5" /><path
       style="display:none;fill:#27945c;fill-opacity:1;stroke:none;stroke-width:4.99846;stroke-dasharray:none;stroke-opacity:1"
       d="m 99.839151,86.819539 c 0,0 -2.05965,-4.40346 -2.13537,-4.40256 C 81.351734,82.618618 63.563324,61.867691 63.647224,52.598331 78.524584,52.407408 91.739651,52.49697 104.67605,81.859158 l 9.73934,-14.341502 7.93996,-0.05498 -11.95152,19.429439 z"
       id="path1-2-9"
       sodipodi:nodetypes="cccccccc" /><text
       xml:space="preserve"
       style="font-weight:bold;font-size:45.861px;line-height:10;font-family:'JetBrains Mono';-inkscape-font-specification:'JetBrains Mono Bold';text-align:start;letter-spacing:-15.875px;word-spacing:0px;writing-mode:lr-tb;direction:ltr;text-anchor:start;display:none;fill:#27945c;fill-opacity:1;stroke:#27945c;stroke-width:0.264583;stroke-opacity:1"
       x="67.958466"
       y="178.38535"
       id="text2-9"><tspan
         sodipodi:role="line"
         id="tspan2-4"
         style="letter-spacing:-15.875px;fill:#27945c;fill-opacity:1;stroke:#27945c;stroke-width:0.264583;stroke-opacity:1"
         x="67.958466"
         y="178.38535">&lt; / &gt;</tspan></text><path
       style="display:inline;fill:none;stroke:#27945c;stroke-width:8;stroke-linecap:butt;stroke-linejoin:round;stroke-dasharray:none;stroke-opacity:1"
       d="M 105,205.43769 H 82.294257 L 57.335272,180.4787 V 147.72003 L 75.014553,124.14766 84.200847,99.881976 105,91.562312 l 20.79915,8.319664 9.1863,24.265684 17.67928,23.57237 v 32.75867 l -24.95899,24.95899 z"
       id="path1"
       sodipodi:nodetypes="ccccccccccccc" /><path
       style="fill:#27945c;fill-opacity:1;stroke:none;stroke-width:4.99846;stroke-dasharray:none;stroke-opacity:1"
       d="m 100.61228,94.094866 c 0,0 -2.059646,-4.40346 -2.135366,-4.40256 C 82.12487,89.893945 64.33646,69.143018 64.42036,59.873658 79.29772,59.682735 92.512784,59.772297 105.44918,89.134485 Z"
       id="path1-2-9-9"
       sodipodi:nodetypes="ccccc" /><path
       style="fill:none;stroke:#27945c;stroke-width:7.99999;stroke-linecap:butt;stroke-linejoin:round;stroke-dasharray:none"
       d="m 105.44918,90.888536 12.66088,-17.24941"
       id="path2"
       sodipodi:nodetypes="cc" /></g></svg>
