<?xml version="1.0" encoding="UTF-8" standalone="no"?>
<!-- Created with Inkscape (http://www.inkscape.org/) -->

<svg
   width="210mm"
   height="297mm"
   viewBox="0 0 210 297"
   version="1.1"
   id="svg1"
   inkscape:version="1.4 (e7c3feb1, 2024-10-09)"
   sodipodi:docname="jetbrain_small.svg"
   xmlns:inkscape="http://www.inkscape.org/namespaces/inkscape"
   xmlns:sodipodi="http://sodipodi.sourceforge.net/DTD/sodipodi-0.dtd"
   xmlns="http://www.w3.org/2000/svg"
   xmlns:svg="http://www.w3.org/2000/svg">
  <sodipodi:namedview
     id="namedview1"
     pagecolor="#ffffff"
     bordercolor="#000000"
     borderopacity="0.25"
     inkscape:showpageshadow="2"
     inkscape:pageopacity="0.0"
     inkscape:pagecheckerboard="0"
     inkscape:deskcolor="#d1d1d1"
     inkscape:document-units="mm"
     inkscape:zoom="0.66152126"
     inkscape:cx="234.30842"
     inkscape:cy="583.50354"
     inkscape:window-width="1920"
     inkscape:window-height="1027"
     inkscape:window-x="0"
     inkscape:window-y="865"
     inkscape:window-maximized="1"
     inkscape:current-layer="layer1"
     showguides="true" />
  <defs
     id="defs1">
    <rect
       x="482.22184"
       y="956.88535"
       width="25.698343"
       height="13.605005"
       id="rect1" />
  </defs>
  <g
     inkscape:label="Layer 1"
     inkscape:groupmode="layer"
     id="layer1">
    <text
       xml:space="preserve"
       style="font-style:normal;font-variant:normal;font-weight:normal;font-stretch:normal;font-size:45.8611px;font-family:Monospace;-inkscape-font-specification:Monospace;text-align:start;letter-spacing:-1.05833px;word-spacing:0px;writing-mode:lr-tb;direction:ltr;text-anchor:start;fill:#27945c;fill-opacity:1;stroke:none;stroke-width:1.97874;stroke-linecap:butt;stroke-linejoin:miter;stroke-dasharray:none;stroke-opacity:1"
       x="14.108273"
       y="270.76913"
       id="text2-8"
       transform="scale(0.9786787,1.0217858)"><tspan
         sodipodi:role="line"
         x="14.108273"
         y="270.76913"
         style="font-style:normal;font-variant:normal;font-weight:bold;font-stretch:normal;font-size:45.8611px;font-family:'JetBrains Mono';-inkscape-font-specification:'JetBrains Mono Bold';text-align:start;letter-spacing:-1.05833px;word-spacing:0px;text-anchor:start;fill:#27945c;fill-opacity:1;stroke-width:1.97874"
         id="tspan4-8">hvltech</tspan></text>
    <g
       id="g3"
       transform="matrix(0.26458333,0,0,0.26458333,-240.50025,-292.34553)">
      <path
         style="fill:#27945c;fill-opacity:1;stroke:none;stroke-width:18.8918;stroke-dasharray:none;stroke-opacity:1"
         d="m 1284.268,1452.2488 c 0,0 -7.7845,-16.643 -8.0707,-16.6396 -61.803,0.7621 -129.0348,-77.6666 -128.7177,-112.7004 56.2294,-0.7216 106.1761,-0.3831 155.0696,110.5921 l 36.8101,-54.2041 30.0093,-0.2078 -45.1711,73.4341 z"
         id="path1-2-9"
         sodipodi:nodetypes="cccccccc" />
      <path
         style="fill:none;fill-opacity:1;stroke:#27945c;stroke-width:30.1051;stroke-dasharray:none;stroke-opacity:1"
         d="m 1218.4264,1900.4952 -98.7358,-100.2485 0.086,-118.7477 66.4691,-88.2604 36.8415,-95.5787 68.713,-33.9347 22.979,0.3212 c 31.4174,9.2528 68.5016,26.6703 68.5016,26.6703 l 36.2091,95.0732 68.914,93.5052 3.5654,5.4654 v 55.921 l -1.0028,58.6747 -98.2306,100.6927 -174.3097,0.4459 z"
         id="path1-2-9-5"
         sodipodi:nodetypes="cccccccccccccccc" />
      <path
         style="font-size:213.333px;font-family:'Monaspace Krypton';-inkscape-font-specification:'Monaspace Krypton';letter-spacing:-35px;word-spacing:-0.0121929px;fill:#27945c;stroke-width:9.75435"
         d="m 1274.4812,1636.4437 -82.6666,58.6666 v 15.4667 l 82.6666,58.6665 10.1333,-14.1866 -72.4266,-51.5199 v -1.3867 l 72.4266,-51.5199 z m 34.0134,157.5465 73.8132,-177.0664 h -21.76 l -73.7065,177.0664 z m 90.5466,-24.7467 82.6665,-58.6665 v -15.4667 l -82.6665,-58.6666 -10.1333,14.1867 72.4265,51.5199 v 1.3867 l -72.4265,51.5199 z"
         id="text2-8-8"
         transform="scale(0.97867871,1.0217858)"
         aria-label="&lt;/&gt;" />
    </g>
    <text
       xml:space="preserve"
       transform="scale(0.26458333)"
       id="text1"
       style="font-style:normal;font-variant:normal;font-weight:bold;font-stretch:normal;font-family:'Iosevka Term';-inkscape-font-specification:'Iosevka Term Bold';text-align:start;letter-spacing:-4px;word-spacing:0px;writing-mode:lr-tb;direction:ltr;white-space:pre;shape-inside:url(#rect1);display:inline;fill:none;stroke:#000000" />
  </g>
</svg>
